<svg width="679" height="400" xmlns="http://www.w3.org/2000/svg">
 <g>
  <title>Layer 1</title>
  <text opacity="0.5" fill="#000000" stroke-width="0" x="1.68049" y="224.23907" id="svg_1" font-size="250" font-family="Noto Sans JP" text-anchor="start" xml:space="preserve" font-weight="bold" stroke="#000" transform="matrix(1.84002 0 0 1.84002 -29.4195 -37.9922)">변</text>
  <text fill="#000000" stroke-width="0" x="327.695" y="366.61713" id="svg_2" font-size="177" font-family="Noto Sans JP" text-anchor="start" xml:space="preserve" font-weight="bold" stroke="#000" transform="matrix(1.04881 0 0 1.11023 -16.8561 -16.6831)">현 석</text>
  <text fill="#000000" stroke-width="0" x="330.21592" y="92.7632" id="svg_3" font-size="125" font-family="Noto Sans JP" text-anchor="start" xml:space="preserve" stroke="#000" transform="matrix(0.87709 0 0 0.932181 40.1917 0.0370555)" font-weight="bold">HYUN</text>
  <text fill="#000000" stroke-width="0" x="333.26896" y="222.56631" id="svg_5" font-size="125" font-family="Noto Sans JP" text-anchor="start" xml:space="preserve" stroke="#000" transform="matrix(0.926335 0 0 0.932181 24.2805 0.0370555)" font-weight="bold">SEOK</text>
  <g opacity="0.5" stroke="null" id="svg_9">
   <text transform="matrix(0.859841 0 0 0.859841 105.561 -0.590926)" stroke="#000" font-weight="bold" xml:space="preserve" text-anchor="start" font-family="Noto Sans JP" font-size="82" id="svg_4" y="61.33699" x="620.73989" stroke-width="0" fill="#000000">B</text>
   <text transform="matrix(0.859841 0 0 0.859841 105.561 -0.590926)" stroke="#000" font-weight="bold" xml:space="preserve" text-anchor="start" font-family="Noto Sans JP" font-size="82" id="svg_6" y="122.33699" x="620.73989" stroke-width="0" fill="#000000">Y</text>
   <text transform="matrix(0.859841 0 0 0.859841 105.561 -0.590926)" stroke="#000" font-weight="bold" xml:space="preserve" text-anchor="start" font-family="Noto Sans JP" font-size="82" id="svg_7" y="178.33699" x="616.73989" stroke-width="0" fill="#000000">U</text>
   <text transform="matrix(0.859841 0 0 0.859841 105.561 -0.590926)" stroke="#000" font-weight="bold" xml:space="preserve" text-anchor="start" font-family="Noto Sans JP" font-size="82" id="svg_8" y="238.33699" x="615.73989" stroke-width="0" fill="#000000">N</text>
  </g>
 </g>

</svg>